<svg width="800" height="900" viewBox="0 0 800 900" fill="none" xmlns="http://www.w3.org/2000/svg">
  <rect width="800" height="900" rx="48" fill="#0B1324"/>
  <circle cx="620" cy="180" r="140" fill="#6D6DFF" fill-opacity="0.35"/>
  <circle cx="180" cy="260" r="180" fill="#00FF7B" fill-opacity="0.2"/>
  <rect x="164" y="232" width="472" height="540" rx="36" fill="#101A2F"/>
  <rect x="228" y="330" width="180" height="180" rx="90" fill="#FFC8A7"/>
  <path d="M242 530C242 470.771 287.771 425 347 425H427C486.229 425 532 470.771 532 530V610H242V530Z" fill="#1E314E"/>
  <path d="M256 338C256 265.5 310.5 211 383 211C455.5 211 510 265.5 510 338V350H256V338Z" fill="#1B263A"/>
  <circle cx="340" cy="336" r="48" fill="#FFCFB0"/>
  <circle cx="440" cy="336" r="48" fill="#FFCFB0"/>
  <path d="M306 364C318 400 360 420 396 420C432 420 474 400 486 364" stroke="#0F172A" stroke-width="18" stroke-linecap="round"/>
  <rect x="268" y="566" width="236" height="124" rx="24" fill="#6D6DFF"/>
  <rect x="292" y="592" width="82" height="16" rx="8" fill="#FFFFFF" fill-opacity="0.8"/>
  <rect x="292" y="624" width="152" height="16" rx="8" fill="#FFFFFF" fill-opacity="0.5"/>
</svg>
